/* XPM */
static char *collectible[] = {
/* columns rows colors chars-per-pixel */
"48 48 150 2 ",
"   c #016573",
".  c #026977",
"X  c #016D7D",
"o  c #0A7777",
"O  c #04717D",
"+  c #097679",
"@  c #0B7C7B",
"#  c #0E837D",
"$  c #12807E",
"%  c #138D7E",
"&  c #027383",
"*  c #057982",
"=  c #087E83",
"-  c #017788",
";  c #047C89",
":  c #137F80",
">  c #0C8585",
",  c #0C8986",
"<  c #06828B",
"1  c #09868B",
"2  c #0B8C8E",
"3  c #128483",
"4  c #118C85",
"5  c #138588",
"6  c #128C8A",
"7  c #0F9A8C",
"8  c #149385",
"9  c #11938A",
"0  c #1E938F",
"q  c #129B8D",
"w  c #058893",
"e  c #0A8E91",
"r  c #168A95",
"t  c #1D8E9A",
"y  c #0C9393",
"u  c #0F9B93",
"i  c #07949C",
"p  c #09959A",
"a  c #0D9C9B",
"s  c #119D94",
"d  c #1C9C94",
"f  c #1D949D",
"g  c #149F99",
"h  c #1D9F9A",
"j  c #24938F",
"k  c #218D96",
"l  c #249993",
"z  c #2B9994",
"x  c #23969F",
"c  c #229B9D",
"v  c #11A08F",
"b  c #0FA697",
"n  c #0FA39F",
"m  c #14A495",
"M  c #1EA496",
"N  c #14AA95",
"B  c #1AA895",
"V  c #13A39A",
"C  c #1AA29C",
"Z  c #15AC9B",
"A  c #19AB9B",
"S  c #13B29D",
"D  c #1DB29D",
"F  c #24A695",
"G  c #24A39B",
"H  c #2BA49C",
"J  c #23A99C",
"K  c #29AB9D",
"L  c #30AB9D",
"P  c #2AB09E",
"I  c #079BA2",
"U  c #0A9EA2",
"Y  c #1F9DA3",
"T  c #2097A2",
"R  c #0DA5A5",
"E  c #13AAA3",
"W  c #1AAFA3",
"Q  c #13B4A4",
"!  c #1DB4A3",
"~  c #15BCA4",
"^  c #12B6AA",
"/  c #1CB7AD",
"(  c #16BDAC",
")  c #1EBBAC",
"_  c #22A1A5",
"`  c #22AEA3",
"'  c #28AFA4",
"]  c #23ADAA",
"[  c #21B0A1",
"{  c #20B8A2",
"}  c #2CBBA4",
"|  c #23BDAC",
" . c #28B8AE",
".. c #30BDA7",
"X. c #25BAB2",
"o. c #2ABEB3",
"O. c #17C4A9",
"+. c #18C2AE",
"@. c #13C3B4",
"#. c #18C4B1",
"$. c #17CAB5",
"%. c #1EC3BA",
"&. c #18CEB8",
"*. c #19D0BA",
"=. c #23C0AF",
"-. c #30C0AB",
";. c #23C4B2",
":. c #2AC3B5",
">. c #26C8B5",
",. c #2EC8BB",
"<. c #34C1B7",
"1. c #39C1B7",
"2. c #34C8B7",
"3. c #36C2B8",
"4. c #39C2B8",
"5. c #3ECBBC",
"6. c #45C7BB",
"7. c #48C7BB",
"8. c #45C9BE",
"9. c #4DCABE",
"0. c #54CCBF",
"q. c #31CAC0",
"w. c #4FCAC0",
"e. c #56CDC0",
"r. c #5BCEC2",
"t. c #45D1C6",
"y. c #5DD0C4",
"u. c #58D8CC",
"i. c #65D3C5",
"p. c #6AD5C7",
"a. c #67D5C9",
"s. c #69D5C9",
"d. c #73D7C9",
"f. c #72D8CB",
"g. c #79DACC",
"h. c #5EE1D0",
"j. c #6BE0D3",
"k. c #7EE7D9",
"l. c #81DECF",
"z. c #83DFD1",
"x. c #89E1D2",
"c. c #85E8D9",
"v. c #8EEBDC",
"b. c #93EFDF",
"n. c #99E9DA",
"m. c #9EF2E2",
"M. c #A3F6E5",
"N. c #ABF8E7",
"B. c #B1FBEC",
"V. c None",
/* pixels */
"V.V.V.V.V.V.V.V.V.V.V.V.V.V.V.V.V.V.V.V.V.V.V.V.V.V.V.V.V.V.V.V.V.V.V.V.V.V.V.V.V.V.V.V.V.V.V.V.",
"V.V.V.V.V.V.V.V.V.V.V.V.V.V.V.V.V.V.V.V.V.V.V.V.V.V.V.V.V.V.V.V.V.V.V.V.V.V.V.V.V.V.V.V.V.V.V.V.",
"V.V.V.V.V.V.V.V.V.V.V.V.V.V.V.V.V.V.V.V.V.V.V.V.V.V.V.V.V.V.V.V.V.V.V.V.V.V.V.V.V.V.V.V.V.V.V.V.",
"V.V.V.V.V.V.V.V.V.V.V.V.V.V.V.V.V.V.V.V.V.V.V.V.V.V.V.V.V.V.V.V.V.V.V.V.V.V.V.V.V.V.V.V.V.V.V.V.",
"V.V.V.V.V.V.V.V.V.V.V.V.V.V.V.V.V.V.V.V.V.V.V.V.V.V.V.V.V.V.V.V.V.V.V.V.V.V.V.V.V.V.V.V.V.V.V.V.",
"V.V.V.V.V.V.V.V.V.V.V.V.V.V.V.V.V.V.V.V.V.V.V.V.V.V.V.V.V.V.V.V.V.V.V.V.V.V.V.V.V.V.V.V.V.V.V.V.",
"V.V.V.V.V.V.V.V.V.V.V.V.V.V.V.V.V.V.V.V.V.V.V.V.V.V.V.V.V.V.V.V.V.V.V.V.V.V.V.V.V.V.V.V.V.V.V.V.",
"V.V.V.V.V.V.V.V.V.V.V.V.V.V.V.V.V.V.V.V.V.V.V.V.V.V.V.V.V.V.V.V.V.V.V.V.V.V.V.V.V.V.V.V.V.V.V.V.",
"V.V.V.V.V.V.V.V.V.V.V.V.V.V.V.V.V.V.V.V.V.V.V.V.V.V.V.V.V.V.V.V.V.V.V.V.V.V.V.V.V.V.V.V.V.V.V.V.",
"V.V.V.V.V.V.V.V.V.V.V.V.V.V.V.V.V.V.V.V.V.V.V.V.V.V.V.V.V.V.V.V.V.V.V.V.V.V.V.V.V.V.V.V.V.V.V.V.",
"V.V.V.V.V.V.V.V.V.V.V.V.V.V.V.V.V.V.V.V.V.V.V.V.V.V.V.V.V.V.V.V.V.V.V.V.V.V.V.V.V.V.V.V.V.V.V.V.",
"V.V.V.V.V.V.V.V.V.V.V.V.V.V.V.V.V.V.V.B.m.b.k.j.u.t.q.%.@.V.V.V.V.V.V.V.V.V.V.V.V.V.V.V.V.V.V.V.",
"V.V.V.V.V.V.V.V.V.V.V.V.V.V.V.V.V.V.N.n.x.f.i.e.7.o.X.^ ,.*.V.V.V.V.V.V.V.V.V.V.V.V.V.V.V.V.V.V.",
"V.V.V.V.V.V.V.V.V.V.V.V.V.V.V.V.V.M.x.x.g.a.e.6.4.o./ / >.#.&.V.V.V.V.V.V.V.V.V.V.V.V.V.V.V.V.V.",
"V.V.V.V.V.V.V.V.V.V.V.V.V.V.V.V.M.l.f.i.f.a.y.w.4.4.o.:.#.( ( $.V.V.V.V.V.V.V.V.V.V.V.V.V.V.V.V.",
"V.V.V.V.V.V.V.V.V.V.V.V.V.V.V.b.g.p.y.0.} D D ! X./ W ` :.( ( ( @.V.V.V.V.V.V.V.V.V.V.V.V.V.V.V.",
"V.V.V.V.V.V.V.V.V.V.V.V.V.V.v.f.i.0.e.} D { | ) ! A m Z ] :.^ ^ ^ ^ V.V.V.V.V.V.V.V.V.V.V.V.V.V.",
"V.V.V.V.V.V.V.V.V.V.V.V.V.c.p.r.9.9...{ | ;./ A V Z C V s s | Q Q Q ^ V.V.V.V.V.V.V.V.V.V.V.V.V.",
"V.V.V.V.V.V.V.V.V.V.V.V.h.a.0.6.9.-.| =.| A C A W V s s q y C  .E Q | #.V.V.V.V.V.V.V.V.V.V.V.V.",
"V.V.V.V.V.V.V.V.V.V.V.V.*.>.5.8.2.=.| ! A A Q A m s s s a a e e W ,.;.*.V.V.V.V.V.V.V.V.V.V.V.V.",
"V.V.V.V.V.V.V.V.V.V.V.V.&.+.+.2.| P D D ! A m s s u V a y e e i X.#.+.$.V.V.V.V.V.V.V.V.V.V.V.V.",
"V.V.V.V.V.V.V.V.V.V.V.V.O.O.+.| D D ! A B V m V V g y y a a I I X.+.) ~ V.V.V.V.V.V.V.V.V.V.V.V.",
"V.V.V.V.V.V.V.V.V.V.V.V.~ N ~ -.~ D A V V V V V u u a R R U i w E ~ N Q V.V.V.V.V.V.V.V.V.V.V.V.",
"V.V.V.V.V.V.V.V.V.V.V.V.~ N m K B B m A C V s u R R R U e 1 ; - J N N S V.V.V.V.V.V.V.V.V.V.V.V.",
"V.V.V.V.V.V.V.V.V.V.V.V.~ m N F % d m m s V E E R a y 1 < & & O G N N S V.V.V.V.V.V.V.V.V.V.V.V.",
"V.V.V.V.V.V.V.V.V.V.V.V.S v v F 8 % 4 8 g V a y 1 > * @ & ; - - G m v N V.V.V.V.V.V.V.V.V.V.V.V.",
"V.V.V.V.V.V.V.V.V.V.V.V.S v v K q M s s 9 > o o + * < ; ; - - - H m s V V.V.V.V.V.V.V.V.V.V.V.V.",
"V.V.V.V.V.V.V.V.V.V.V.V.Z K M J P q 8 # @ @ = > 1 < ; ; & X   5 0 z H B V.V.V.V.V.V.V.V.V.V.V.V.",
"V.V.V.V.V.V.V.V.V.V.V.V.[ 7 7 7 B q @ 3 , 2 2 2 < = X       k d 5 @ 3 6 V.V.V.V.V.V.V.V.V.V.V.V.",
"V.V.V.V.V.V.V.V.V.V.V.V.V.b 7 9 8 V ] u e 2 < O .   . X & T C 5 3 : 3 V.V.V.V.V.V.V.V.V.V.V.V.V.",
"V.V.V.V.V.V.V.V.V.V.V.V.V.V.b 9 4 4 h ] y > O O & & X & x C 4 4 3 3 V.V.V.V.V.V.V.V.V.V.V.V.V.V.",
"V.V.V.V.V.V.V.V.V.V.V.V.V.V.V.u 9 4 4 0 c _ T f t k r r m 9 4 4 6 V.V.V.V.V.V.V.V.V.V.V.V.V.V.V.",
"V.V.V.V.V.V.V.V.V.V.V.V.V.V.V.V.9 6 3 3 m s b V u s 9 l q 8 4 6 V.V.V.V.V.V.V.V.V.V.V.V.V.V.V.V.",
"V.V.V.V.V.V.V.V.V.V.V.V.V.V.V.V.V.6 3 j q 7 9 9 9 4 4 3 H , 9 V.V.V.V.V.V.V.V.V.V.V.V.V.V.V.V.V.",
"V.V.V.V.V.V.V.V.V.V.V.V.V.V.V.V.V.V.5 G 7 q 7 9 9 9 4 4 l s V.V.V.V.V.V.V.V.V.V.V.V.V.V.V.V.V.V.",
"V.V.V.V.V.V.V.V.V.V.V.V.V.V.V.V.V.V.V.V.V.V.V.V.V.V.V.V.V.V.V.V.V.V.V.V.V.V.V.V.V.V.V.V.V.V.V.V.",
"V.V.V.V.V.V.V.V.V.V.V.V.V.V.V.V.V.V.V.V.V.V.V.V.V.V.V.V.V.V.V.V.V.V.V.V.V.V.V.V.V.V.V.V.V.V.V.V.",
"V.V.V.V.V.V.V.V.V.V.V.V.V.V.V.V.V.V.V.V.V.V.V.V.V.V.V.V.V.V.V.V.V.V.V.V.V.V.V.V.V.V.V.V.V.V.V.V.",
"V.V.V.V.V.V.V.V.V.V.V.V.V.V.V.V.V.V.V.V.V.V.V.V.V.V.V.V.V.V.V.V.V.V.V.V.V.V.V.V.V.V.V.V.V.V.V.V.",
"V.V.V.V.V.V.V.V.V.V.V.V.V.V.V.V.V.V.V.V.V.V.V.V.V.V.V.V.V.V.V.V.V.V.V.V.V.V.V.V.V.V.V.V.V.V.V.V.",
"V.V.V.V.V.V.V.V.V.V.V.V.V.V.V.V.V.V.V.V.V.V.V.V.V.V.V.V.V.V.V.V.V.V.V.V.V.V.V.V.V.V.V.V.V.V.V.V.",
"V.V.V.V.V.V.V.V.V.V.V.V.V.V.V.V.V.V.V.V.V.V.V.V.V.V.V.V.V.V.V.V.V.V.V.V.V.V.V.V.V.V.V.V.V.V.V.V.",
"V.V.V.V.V.V.V.V.V.V.V.V.V.V.V.V.V.V.V.V.V.V.V.V.V.V.V.V.V.V.V.V.V.V.V.V.V.V.V.V.V.V.V.V.V.V.V.V.",
"V.V.V.V.V.V.V.V.V.V.V.V.V.V.V.V.V.V.V.V.V.V.V.V.V.V.V.V.V.V.V.V.V.V.V.V.V.V.V.V.V.V.V.V.V.V.V.V.",
"V.V.V.V.V.V.V.V.V.V.V.V.V.V.V.V.V.V.V.V.V.V.V.V.V.V.V.V.V.V.V.V.V.V.V.V.V.V.V.V.V.V.V.V.V.V.V.V.",
"V.V.V.V.V.V.V.V.V.V.V.V.V.V.V.V.V.V.V.V.V.V.V.V.V.V.V.V.V.V.V.V.V.V.V.V.V.V.V.V.V.V.V.V.V.V.V.V.",
"V.V.V.V.V.V.V.V.V.V.V.V.V.V.V.V.V.V.V.V.V.V.V.V.V.V.V.V.V.V.V.V.V.V.V.V.V.V.V.V.V.V.V.V.V.V.V.V.",
"V.V.V.V.V.V.V.V.V.V.V.V.V.V.V.V.V.V.V.V.V.V.V.V.V.V.V.V.V.V.V.V.V.V.V.V.V.V.V.V.V.V.V.V.V.V.V.V."
};
