/* XPM */
static char *exit[] = {
/* columns rows colors chars-per-pixel */
"48 48 19 1 ",
"  c #25131A",
". c #2D1925",
"X c #311C2B",
"o c #3D253B",
"O c #462B28",
"+ c #522F2F",
"@ c #58322B",
"# c #573730",
"$ c #50323E",
"% c #5D3B38",
"& c #653C32",
"* c #724234",
"= c #634040",
"- c #7E4B44",
"; c #8B533E",
": c #895A45",
"> c #A46549",
", c #BF704D",
"< c None",
/* pixels */
"<<<       <<<<<<<<<<<<<<<<<<<<<<<<<<<<       <<<",
"<<<****+XX.<<<<<<<<<<<<<<<<<<<<<<<<<<@****XXX<<<",
"<< ,,,,-ooX <<<<<<<<<<<<<<<<<<<<<<<< *,,,,ooo <<",
"<< ,,,,-ooX                          *,,,,ooo <<",
"<O#,,,,-o=%##&**********************#;,,,,o$=#O<",
" #:,,,,-o::::>,,,,,,,,,,,,,,,,,,,,,,:>,,,,o=::# ",
" #:,,,,-o::::>,,,,,,,,,,,,,,,,,,,,,,:>,,,,o=::# ",
"<O#,,,,-o=%##&**********************#;,,,,o$=#O<",
"<< ,,,,-ooX                          *,,,,ooo <<",
"<< ,,,,-ooX <<<<<<<<<<<<<<<<<<<<<<<< *,,,,ooo <<",
"<< ,,,,-ooX <<<<<<<<<<<<<<<<<<<<<<<< *,,,,ooo <<",
"<< ,,,,-ooX <<<<<<<<<<<<<<<<<<<<<<<< *,,,,ooo <<",
"<< ,,,,-ooX <<<<<<<<<<<<<<<<<<<<<<<< *,,,,ooo <<",
"<< ,,,,-ooX <<<<<<<<<<<<<<<<<<<<<<<< *,,,,ooo <<",
"<< ,,,,-ooX <<<<<<<<<<<<<<<<<<<<<<<< *,,,,ooo <<",
"<< ,,,,-ooX                          *,,,,ooo <<",
"<O#,,,,-o=%##&**********************#;,,,,o$=#O<",
" #:,,,,-o::::>,,,,,,,,,,,,,,,,,,,,,,:>,,,,o=::# ",
" #:,,,,-o::::>,,,,,,,,,,,,,,,,,,,,,,:>,,,,o=::# ",
"<O#,,,,-o=%##&**********************#;,,,,o$=#O<",
"<< ,,,,-ooX                          *,,,,ooo <<",
"<< ,,,,-ooX <<<<<<<<<<<<<<<<<<<<<<<< *,,,,ooo <<",
"<< ,,,,-ooX <<<<<<<<<<<<<<<<<<<<<<<< *,,,,ooo <<",
"<< ,,,,-ooX <<<<<<<<<<<<<<<<<<<<<<<< *,,,,ooo <<",
"<< ,,,,-ooX <<<<<<<<<<<<<<<<<<<<<<<< *,,,,ooo <<",
"<< ,,,,-ooX <<<<<<<<<<<<<<<<<<<<<<<< *,,,,ooo <<",
"<< ,,,,-ooX <<<<<<<<<<<<<<<<<<<<<<<< *,,,,ooo <<",
"<< ,,,,-ooX                          *,,,,ooo <<",
"<O#,,,,-o=%##&**********************#;,,,,o$=#O<",
" #:,,,,-o::::>,,,,,,,,,,,,,,,,,,,,,,:>,,,,o=::# ",
" #:,,,,-o::::>,,,,,,,,,,,,,,,,,,,,,,:>,,,,o=::# ",
"<O#,,,,-o=%##&**********************#;,,,,o$=#O<",
"<< ,,,,-ooX                          *,,,,ooo <<",
"<< ,,,,-ooX <<<<<<<<<<<<<<<<<<<<<<<< *,,,,ooo <<",
"<< ,,,,-ooX <<<<<<<<<<<<<<<<<<<<<<<< *,,,,ooo <<",
"<< ,,,,-ooX <<<<<<<<<<<<<<<<<<<<<<<< *,,,,ooo <<",
"<< ,,,,-ooX <<<<<<<<<<<<<<<<<<<<<<<< *,,,,ooo <<",
"<< ,,,,-ooX <<<<<<<<<<<<<<<<<<<<<<<< *,,,,ooo <<",
"<< ,,,,-ooX <<<<<<<<<<<<<<<<<<<<<<<< *,,,,ooo <<",
"<< ,,,,-ooX                          *,,,,ooo <<",
"<O#,,,,-o=%##&**********************#;,,,,o$=#O<",
" #:,,,,-o::::>,,,,,,,,,,,,,,,,,,,,,,:>,,,,o=::# ",
" #:,,,,-o::::>,,,,,,,,,,,,,,,,,,,,,,:>,,,,o=::# ",
"<O#,,,,-o=%##&**********************#;,,,,o$=#O<",
"<< ,,,,-ooX                          *,,,,ooo <<",
"<< ,,,,-ooX <<<<<<<<<<<<<<<<<<<<<<<< *,,,,ooo <<",
"<< ,,,,-ooX <<<<<<<<<<<<<<<<<<<<<<<< *,,,,ooo <<",
"<< ,,,,-ooX <<<<<<<<<<<<<<<<<<<<<<<< *,,,,ooo <<"
};
