/* XPM */
static char *wall[] = {
/* columns rows colors chars-per-pixel */
"48 48 3 1 ",
"  c #281529",
". c #351B22",
"X c #4F2E33",
/* pixels */
"                  XXX......               ......",
"                  XXX......               ......",
"                  XXX......               ......",
"                     XXX......            ...   ",
"                     XXX......            ...   ",
"                     XXX......            ...   ",
"                     ...XXXXXX                  ",
"                     ...XXXXXX                  ",
"                     ...XXXXXX                  ",
"                  .........      ......         ",
"                  .........      ......         ",
"                  .........      ......         ",
"...                  ...         XXX......   XXX",
"...                  ...         XXX......   XXX",
"...                  ...         XXX......   XXX",
"XXX...                           ...XXX...      ",
"XXX...                           ...XXX...      ",
"XXX...                           ...XXX...      ",
"...      XXX...                  ......         ",
"...      XXX...                  ......         ",
"...      XXX...                  ......         ",
"            XXX...               ...            ",
"            XXX...               ...            ",
"            XXX...               ...            ",
"            ......                  XXX......   ",
"            ......                  XXX......   ",
"            ......                  XXX......   ",
"               ...      XXX...         XXXXXX   ",
"               ...      XXX...         XXXXXX   ",
"               ...      XXX...         XXXXXX   ",
"   ......                  XXX...      ......   ",
"   ......                  XXX...      ......   ",
"   ......                  XXX...      ......   ",
"   XXX......               ......      ...      ",
"   XXX......               ......      ...      ",
"   XXX......               ......      ...      ",
"      XXXXXX               ...                  ",
"      XXXXXX               ...                  ",
"      XXXXXX               ...                  ",
"   .........                                    ",
"   .........                                    ",
"   .........                                    ",
"   ......                                 XXX   ",
"   ......                                 XXX   ",
"   ......                                 XXX   ",
"                                       ......XXX",
"                                       ......XXX",
"                                       ......XXX"
};
