/* XPM */
static char *player[] = {
/* columns rows colors chars-per-pixel */
"48 48 149 2 ",
"   c #281515",
".  c #2D1B1B",
"X  c #311F1F",
"o  c #211D2C",
"O  c #1F2036",
"+  c #1C233E",
"@  c #352424",
"#  c #382727",
"$  c #3A2929",
"%  c #433333",
"&  c #4A3A3A",
"*  c #1A2748",
"=  c #18284D",
"-  c #1C2645",
";  c #162C56",
":  c #152D5B",
">  c #23274A",
",  c #272D53",
"<  c #2A3056",
"1  c #26385F",
"2  c #24375D",
"3  c #133063",
"4  c #15346C",
"5  c #0E3777",
"6  c #0F3778",
"7  c #0E397C",
"8  c #143573",
"9  c #123879",
"0  c #29396F",
"q  c #293C65",
"w  c #2E3F71",
"e  c #334068",
"r  c #3E486A",
"t  c #344261",
"y  c #31467D",
"u  c #4F4040",
"i  c #524343",
"p  c #5A4E4E",
"a  c #5E5152",
"s  c #635555",
"d  c #645858",
"f  c #695C5C",
"g  c #575763",
"h  c #5E5E69",
"j  c #5F6170",
"k  c #6D6161",
"l  c #706464",
"z  c #766D6D",
"x  c #6C6B77",
"c  c #7C7373",
"v  c #79777F",
"b  c #827777",
"n  c #847B7B",
"m  c #0C3B83",
"M  c #0D3D89",
"N  c #103B82",
"B  c #0D4193",
"V  c #0F439A",
"C  c #104195",
"Z  c #10449D",
"A  c #364E87",
"S  c #3A4E8B",
"D  c #3F5991",
"F  c #1146A2",
"G  c #1A43A4",
"H  c #1147A9",
"J  c #1248AC",
"K  c #124AB3",
"L  c #134BBA",
"P  c #1C53BE",
"I  c #3B5DA2",
"U  c #3961B1",
"Y  c #4C5885",
"T  c #4E6596",
"R  c #6D6E85",
"E  c #6E758C",
"W  c #4D72B8",
"Q  c #144EC4",
"!  c #184DC7",
"~  c #154FCA",
"^  c #184EC9",
"/  c #1550CD",
"(  c #1A52C5",
")  c #1652D4",
"_  c #1653DA",
"`  c #1956DC",
"'  c #1C59DE",
"]  c #1A56D5",
"[  c #1E5BE0",
"{  c #205EE2",
"}  c #2663E5",
"|  c #2967E9",
" . c #2D6CEC",
".. c #306FED",
"X. c #3473EE",
"o. c #3676F2",
"O. c #3A7CF6",
"+. c #537CCA",
"@. c #847F81",
"#. c #3E83F7",
"$. c #3D80F8",
"%. c #678DD0",
"&. c #7599DC",
"*. c #468BFE",
"=. c #4284F7",
"-. c #4D90FF",
";. c #5191FC",
":. c #749EEB",
">. c #759CE4",
",. c #609CFF",
"<. c #6397F1",
"1. c #719EF1",
"2. c #7AA1E4",
"3. c #66A0FF",
"4. c #7BADFF",
"5. c #8A8181",
"6. c #948D8E",
"7. c #969191",
"8. c #9A9292",
"9. c #9C989E",
"0. c #A29C9C",
"q. c #AAA5A5",
"w. c #AEAAAC",
"e. c #A5A1A2",
"r. c #B1ABAC",
"t. c #B4B1B1",
"y. c #B9B4B4",
"u. c #BCB9B9",
"i. c #C2BFBF",
"p. c #81A5E2",
"a. c #80B0FF",
"s. c #8BB7FF",
"d. c #8EB9FF",
"f. c #92BAFC",
"g. c #A4C6FE",
"h. c #A6C8FF",
"j. c #ABCBFF",
"k. c #BAD4FF",
"l. c #C5C3C3",
"z. c #C9C5C5",
"x. c #CDCACA",
"c. c #D1CECE",
"v. c #D5D3D3",
"b. c #D8D5D5",
"n. c #CADEFF",
"m. c #EDECEC",
"M. c #E3E2E2",
"N. c #F3F3F3",
"B. c None",
/* pixels */
"B.B.B.B.B.B.B.B.B.B.B.B.B.B.B.B.B.B.B.B.B.B.B.B.B.B.B.B.B.B.B.B.B.B.B.B.B.B.B.B.B.B.B.B.B.B.B.B.",
"B.B.B.B.B.B.B.B.B.B.B.B.B.B.B.B.B.B.B.B.B.B.B.B.B.B.B.B.B.B.B.B.B.B.B.B.B.B.B.B.B.B.B.B.B.B.B.B.",
"B.B.B.B.B.B.B.B.B.B.B.B.B.B.B.B.B.B.B.B.B.B.B.B.B.B.B.B.B.B.B.B.B.B.B.B.B.B.B.B.B.B.B.B.B.B.B.B.",
"B.B.B.B.B.B.B.B.B.B.B.B.B.B.B.B.B.B.B.B.B.B.B.B.B.B.B.B.B.B.B.B.B.B.B.B.B.B.B.B.B.B.B.B.B.B.B.B.",
"B.B.B.B.B.B.B.B.B.B.B.B.B.B.B.B.B.B.B.B.B.B.B.B.B.B.B.B.B.B.B.B.B.B.B.B.B.B.B.B.B.B.B.B.B.B.B.B.",
"B.B.B.B.B.B.B.B.B.B.B.B.B.B.B.B.B.B.B.B.B.B.B.B.B.B.B.B.B.B.B.B.B.B.B.B.B.B.B.B.B.B.B.B.B.B.B.B.",
"B.B.B.B.B.B.B.B.B.B.B.B.B.B.B.B.B.B.B.B.B.B.B.B.B.B.B.B.B.B.B.B.B.B.B.B.B.B.B.B.B.B.B.B.B.B.B.B.",
"B.B.B.B.B.B.B.B.B.B.B.B.B.B.B.B.B.B.B.B.B.B.B.B.B.B.B.B.B.B.B.B.B.B.B.B.B.B.B.B.B.B.B.B.B.B.B.B.",
"B.B.B.B.B.B.B.B.B.B.B.B.B.B.B.B.B.B.B.B.B.B.B.B.B.B.B.B.B.B.B.B.B.B.B.B.B.B.B.B.B.B.B.B.B.B.B.B.",
"B.B.B.B.B.B.B.B.B.B.B.B.B.B.B.B.B.B.B.B.B.B.B.B.B.B.B.B.B.B.B.B.B.B.B.B.B.B.B.B.B.B.B.B.B.B.B.B.",
"B.B.B.B.B.B.B.B.B.B.B.B.B.B.B.B.B.B.B.B.B.B.B.B.B.B.B.B.B.B.B.B.B.B.B.B.B.B.B.B.B.B.B.B.B.B.B.B.",
"B.B.B.B.B.B.B.B.B.B.B.B.B.B.B.B.B.B.B.B.B.B.B.B.B.B.B.B.B.B.B.B.B.B.B.B.B.B.B.B.B.B.B.B.B.B.B.B.",
"B.B.B.B.B.B.B.B.B.B.B.B.B.B.B.B.B.B.B.B.B.B.B.B.B.B.B.B.B.B.B.B.B.B.B.B.B.B.B.B.B.B.B.B.B.B.B.B.",
"B.B.B.B.B.B.B.B.B.B.B.B.B.B.B.B.B.B.B.B.B.B.B.B.B.B.B.B.B.B.B.B.B.B.B.B.B.B.B.B.B.B.B.B.B.B.B.B.",
"B.B.B.B.B.B.B.B.B.B.B.B.B.B.B.B.B.B.B.B.B.B.< e w > B.B.B.B.B.B.B.B.B.B.B.B.B.B.B.B.B.B.B.B.B.B.",
"B.B.B.B.B.B.B.B.B.B.B.B.B.B.B.B.B.B.B.w U <.s.h.,.=.P 8 - B.B.B.B.B.B.B.B.B.B.B.B.B.B.B.B.B.B.B.",
"B.B.B.B.B.B.B.B.B.B.B.B.B.B.B.B.B.< +.k.n.j.d.4.-.*.o.' H 9 O B.B.B.B.B.B.B.B.B.B.B.B.B.B.B.B.B.",
"B.B.B.B.B.B.B.B.B.B.B.B.B.B.B.B.y f.k.,.*.*.O.o.......{ _ K C * B.B.B.B.B.B.B.B.B.B.B.B.B.B.B.B.",
"B.B.B.B.B.B.B.B.B.B.B.B.B.B.B.A j.f.*.$. .{ [ ` ` _ ' _ _ _ K C * B.B.B.B.B.B.B.B.B.B.B.B.B.B.B.",
"B.B.B.B.B.B.B.5.k B.B.B.B.B.w g.a.O. .' _ ^ ` _ _ _ _ { _ / ) F B + B.B.B.B.B.k z B.B.B.B.B.B.B.",
"B.B.B.B.B.B.B.0.z.B.B.B.B.B.2.d.o.} _ / _ _ ! G G ^ _ _ ) _ _ K F m B.B.B.B.B.x.n B.B.B.B.B.B.B.",
"B.B.B.B.B.B.B.5.l.l B.B.B.T g.O.} _ [ ` / Y r.v.l.r.Y ^ ) _ ) _ F V = B.B.B.c l.z B.B.B.B.B.B.B.",
"B.B.B.B.B.B.B.s y.m.r.l $ p.;.| ) / _ / R c.s     @ n x L _ ' _ Q F 6 % l y.m.q.i B.B.B.B.B.B.B.",
"B.B.B.B.B.B.B.B.l.t.8.N.E 4.o.' ' [ _ S b.n x.f       6.r ) _ ) _ F B j N.8.y.t.B.B.B.B.B.B.B.B.",
"B.B.B.B.B.B.B.B.# y.N.M.T *.[ _ { ` ) 9.b m.N.b.      u 6.L _ _ _ J V t b.N.q.# B.B.B.B.B.B.B.B.",
"B.B.B.B.B.B.B.B.B.d x.b I o._ _ _ ` G x.i N.N.y.      @ y.G _ _ _ L V ; c l.a B.B.B.B.B.B.B.B.B.",
"B.B.B.B.B.B.B.B.B.B.. a W } _ _ _ _ M c.$ & f X % $   % w.G ) _ / Q V 3 a . B.B.B.B.B.B.B.B.B.B.",
"B.B.B.B.B.B.B.B.B.B.B.B.%.[ _ _ _ _ Z t.s       s &   l v K _ ` ) Q F 8 B.B.B.B.B.B.B.B.B.B.B.B.",
"B.B.B.B.B.B.B.B.B.B.B.B.&._ [ _ ` _ L x q.            e.q Q _ ] _ Q F 9 B.B.B.B.B.B.B.B.B.B.B.B.",
"B.B.B.B.B.B.B.B.B.B.B.B.>._ ` _ _ _ _ 4 e.p       & 0.h C _ _ _ _ L F m B.B.B.B.B.B.B.B.B.B.B.B.",
"B.B.B.B.B.B.B.B.B.B.B.B.:._ [ _ ! _ _ K q @.7.7.u.t.g N L _ ) ) _ K F m B.B.B.B.B.B.B.B.B.B.B.B.",
"B.B.B.B.B.B.B.B.B.B.B.B.:.' _ ^ _ _ _ _ K N 3 2 q 4 C Q _ _ ) / _ F Z m B.B.B.B.B.B.B.B.B.B.B.B.",
"B.B.B.B.B.B.B.B.B.B.B.B.1.) ) ) Q _ _ ) _ / / Q / / ) _ _ _ _ _ / F F m B.B.B.B.B.B.B.B.B.B.B.B.",
"B.B.B.B.B.B.B.B.B.B.B.B.=.) ~ Z F H / ) _ / J J ) / L H L / K F F V F m B.B.B.B.B.B.B.B.B.B.B.B.",
"B.B.B.B.B.B.B.B.B.B.B.B.X._ H V B V F K J F F F V F F V V F V B V V F m B.B.B.B.B.B.B.B.B.B.B.B.",
"B.B.B.B.B.B.B.B.B.B.B.B.( L Z : o ; V F V m m F F m 7 V F M ; o : B F m B.B.B.B.B.B.B.B.B.B.B.B.",
"B.B.B.B.B.B.B.B.B.B.B.B.M Z 4 B.B.B.= m : B.o 6 5 o B.: m = B.B.B.3 m 7 B.B.B.B.B.B.B.B.B.B.B.B.",
"B.B.B.B.B.B.B.B.B.B.B.B.+ * B.B.B.B.B.B.B.B.B.B.B.B.B.B.B.B.B.B.B.B.* - B.B.B.B.B.B.B.B.B.B.B.B.",
"B.B.B.B.B.B.B.B.B.B.B.B.B.B.B.B.B.B.B.B.B.B.B.B.B.B.B.B.B.B.B.B.B.B.B.B.B.B.B.B.B.B.B.B.B.B.B.B.",
"B.B.B.B.B.B.B.B.B.B.B.B.B.B.B.B.B.B.B.B.B.B.B.B.B.B.B.B.B.B.B.B.B.B.B.B.B.B.B.B.B.B.B.B.B.B.B.B.",
"B.B.B.B.B.B.B.B.B.B.B.B.B.B.B.B.B.B.B.B.B.B.B.B.B.B.B.B.B.B.B.B.B.B.B.B.B.B.B.B.B.B.B.B.B.B.B.B.",
"B.B.B.B.B.B.B.B.B.B.B.B.B.B.B.B.B.B.B.B.B.B.B.B.B.B.B.B.B.B.B.B.B.B.B.B.B.B.B.B.B.B.B.B.B.B.B.B.",
"B.B.B.B.B.B.B.B.B.B.B.B.B.B.B.B.B.B.B.B.B.B.B.B.B.B.B.B.B.B.B.B.B.B.B.B.B.B.B.B.B.B.B.B.B.B.B.B.",
"B.B.B.B.B.B.B.B.B.B.B.B.B.B.B.B.B.B.B.B.B.B.B.B.B.B.B.B.B.B.B.B.B.B.B.B.B.B.B.B.B.B.B.B.B.B.B.B.",
"B.B.B.B.B.B.B.B.B.B.B.B.B.B.B.B.B.B.B.B.B.B.B.B.B.B.B.B.B.B.B.B.B.B.B.B.B.B.B.B.B.B.B.B.B.B.B.B.",
"B.B.B.B.B.B.B.B.B.B.B.B.B.B.B.B.B.B.B.B.B.B.B.B.B.B.B.B.B.B.B.B.B.B.B.B.B.B.B.B.B.B.B.B.B.B.B.B.",
"B.B.B.B.B.B.B.B.B.B.B.B.B.B.B.B.B.B.B.B.B.B.B.B.B.B.B.B.B.B.B.B.B.B.B.B.B.B.B.B.B.B.B.B.B.B.B.B.",
"B.B.B.B.B.B.B.B.B.B.B.B.B.B.B.B.B.B.B.B.B.B.B.B.B.B.B.B.B.B.B.B.B.B.B.B.B.B.B.B.B.B.B.B.B.B.B.B."
};
