/* XPM */
static char *floor[] = {
/* columns rows colors chars-per-pixel */
"48 48 6 1 ",
"  c #3F3857",
". c #422A51",
"X c #586270",
"o c #80666F",
"O c #878C81",
"+ c #A4AC88",
/* pixels */
"   ...   XXXOOOooo   ...............+++OOOOOO...",
"   ...   XXXOOOooo   ...............+++OOOOOO...",
"   ...   XXXOOOooo   ...............+++OOOOOO...",
".........   oooooo   ...+++OOO...XXXXXX++++++...",
".........   oooooo   ...+++OOO...XXXXXX++++++...",
".........   oooooo   ...+++OOO...XXXXXX++++++...",
"   OOOOOO...   ......   XXX+++OOO   XXXoooooo...",
"   OOOOOO...   ......   XXX+++OOO   XXXoooooo...",
"   OOOOOO...   ......   XXX+++OOO   XXXoooooo...",
"XXX+++OOOOOO.........   XXXoooooo   XXXooo   ...",
"XXX+++OOOOOO.........   XXXoooooo   XXXooo   ...",
"XXX+++OOOOOO.........   XXXoooooo   XXXooo   ...",
"XXXXXX++++++...   XXX...   ooo   ...      ...   ",
"XXXXXX++++++...   XXX...   ooo   ...      ...   ",
"XXXXXX++++++...   XXX...   ooo   ...      ...   ",
"XXXooooooooo......   XXX...   ...   ............",
"XXXooooooooo......   XXX...   ...   ............",
"XXXooooooooo......   XXX...   ...   ............",
"   oooooo   ......   ...............   XXX+++...",
"   oooooo   ......   ...............   XXX+++...",
"   oooooo   ......   ...............   XXX+++...",
"         ...   ............   ...   XXXOOOOOO+++",
"         ...   ............   ...   XXXOOOOOO+++",
"         ...   ............   ...   XXXOOOOOO+++",
"   XXX...   ...   +++OOOOOO......   XXXXXXOOOooo",
"   XXX...   ...   +++OOOOOO......   XXXXXXOOOooo",
"   XXX...   ...   +++OOOOOO......   XXXXXXOOOooo",
"      XXX...   XXXXXX+++OOOOOO......      ooo   ",
"      XXX...   XXXXXX+++OOOOOO......      ooo   ",
"      XXX...   XXXXXX+++OOOOOO......      ooo   ",
"...      ...   XXXXXXooo++++++...   ......   ...",
"...      ...   XXXXXXooo++++++...   ......   ...",
"...      ...   XXXXXXooo++++++...   ......   ...",
"   ...   ......   ooooooooo      OOOOOO.........",
"   ...   ......   ooooooooo      OOOOOO.........",
"   ...   ......   ooooooooo      OOOOOO.........",
"OOO......   ......   ooo      XXX+++OOOOOO   +++",
"OOO......   ......   ooo      XXX+++OOOOOO   +++",
"OOO......   ......   ooo      XXX+++OOOOOO   +++",
"+++OOO......   ...      ...XXXXXXooo+++oooXXXXXX",
"+++OOO......   ...      ...XXXXXXooo+++oooXXXXXX",
"+++OOO......   ...      ...XXXXXXooo+++oooXXXXXX",
"ooo...   +++OOO............   XXXoooooo      XXX",
"ooo...   +++OOO............   XXXoooooo      XXX",
"ooo...   +++OOO............   XXXoooooo      XXX",
"......XXXXXX+++OOO...   ...      ooo   ...      ",
"......XXXXXX+++OOO...   ...      ooo   ...      ",
"......XXXXXX+++OOO...   ...      ooo   ...      "
};
